<?xml version="1.0" encoding="utf-8"?>
<svg version="1.1" width="179" height="149" xmlns="http://www.w3.org/2000/svg">
  <defs/>
  <path d="M0 0 C5.33500989 1.91255072 6.71000948 6.37720946 9.3125 11.1875 C10.70005458 13.5389693 12.12914881 15.86374352 13.5625 18.1875 C14.22765625 19.280625 14.8928125 20.37375 15.578125 21.5 C17.19116094 24.20663323 17.19116094 24.20663323 19.3125 26.1875 C26.34427713 26.33100566 30.13586841 22.54869759 35.3125 18.1875 C41.57234359 13.12059321 41.57234359 13.12059321 44.38671875 13.375 C46.3125 14.1875 46.3125 14.1875 48.3125 17.1875 C48.61547852 19.62353516 48.61547852 19.62353516 48.69140625 22.4765625 C48.72556641 23.50007813 48.75972656 24.52359375 48.79492188 25.578125 C48.83456055 27.17914063 48.83456055 27.17914063 48.875 28.8125 C48.93466036 30.92980826 48.9982436 33.0470109 49.06640625 35.1640625 C49.09033447 36.10330566 49.1142627 37.04254883 49.13891602 38.01025391 C49.07382715 40.16505161 49.07382715 40.16505161 50.3125 41.1875 C54.61680815 41.08387777 58.88388685 40.7798518 62.875 39.125 C66.61774643 37.68548214 70.34767903 38.03201682 74.3125 38.1875 C73.80135368 43.81741157 72.28359647 48.00517821 69.6875 53 C69.33429688 53.69561035 68.98109375 54.3912207 68.6171875 55.10791016 C65.99198356 60.16494363 63.01227091 64.82396242 59.5625 69.3671875 C58.12380724 71.09425464 58.12380724 71.09425464 58.3125 73.1875 C64.51534744 75.39721003 70.20851698 75.42315619 76.75 75.3125 C77.76771484 75.30347656 78.78542969 75.29445313 79.83398438 75.28515625 C82.32707156 75.26174698 84.81965859 75.228957 87.3125 75.1875 C82.81538312 84.71481555 68.74104869 89.55896178 59.3125 93.1875 C54.05954783 94.86308633 48.71066291 96.08316519 43.3125 97.1875 C43.3125 97.8475 43.3125 98.5075 43.3125 99.1875 C46.4760377 101.356783 49.7249787 102.85499209 53.3125 104.1875 C53.125 106.0625 53.125 106.0625 52.3125 108.1875 C43.26332285 113.09991045 29.59382266 112.32661793 19.82421875 110.08203125 C12.58642638 107.50434159 6.19375794 103.05105393 0.3125 98.1875 C-2.9257905 99.70521388 -5.78780069 101.56443331 -8.75 103.5625 C-21.91873543 111.8841679 -34.7438262 113.05004729 -49.8671875 109.8203125 C-51.6875 109.1875 -51.6875 109.1875 -53.6875 107.1875 C-53.59765625 105.234375 -53.59765625 105.234375 -52.6875 103.1875 C-50.62109375 101.703125 -50.62109375 101.703125 -48.125 100.4375 C-47.29871094 100.00953125 -46.47242188 99.5815625 -45.62109375 99.140625 C-44.98300781 98.82609375 -44.34492187 98.5115625 -43.6875 98.1875 C-46.62822828 97.18398738 -49.55831354 96.22305268 -52.5546875 95.3984375 C-64.49482909 92.08000854 -78.21828721 86.44675782 -87.6875 78.1875 C-87.6875 77.5275 -87.6875 76.8675 -87.6875 76.1875 C-86.78825806 76.157771 -86.78825806 76.157771 -85.87084961 76.12744141 C-83.12183529 76.03144997 -80.37350507 75.92207495 -77.625 75.8125 C-76.68205078 75.7815625 -75.73910156 75.750625 -74.76757812 75.71875 C-69.41183421 75.49481646 -64.76651759 74.92042417 -59.6875 73.1875 C-61.44578256 68.26826004 -64.00759807 63.84875444 -66.5625 59.3125 C-66.99691406 58.53519531 -67.43132812 57.75789063 -67.87890625 56.95703125 C-70.34741774 52.53752229 -70.34741774 52.53752229 -72.890625 48.16088867 C-74.9836266 44.6266291 -76.19273577 42.35569514 -75.6875 38.1875 C-73.8621875 38.125625 -73.8621875 38.125625 -72 38.0625 C-71.31550781 38.03929687 -70.63101563 38.01609375 -69.92578125 37.9921875 C-67.6875 38.1875 -67.6875 38.1875 -65.34375 39.15625 C-62.13320431 40.40269715 -59.30618097 40.60454964 -55.875 40.8125 C-54.71355469 40.88726562 -53.55210938 40.96203125 -52.35546875 41.0390625 C-51.47503906 41.08804688 -50.59460937 41.13703125 -49.6875 41.1875 C-49.66768066 40.4761792 -49.64786133 39.7648584 -49.62744141 39.03198242 C-49.53225133 35.81261184 -49.42254771 32.5938955 -49.3125 29.375 C-49.26609375 27.69567383 -49.26609375 27.69567383 -49.21875 25.98242188 C-49.18007813 24.90927734 -49.14140625 23.83613281 -49.1015625 22.73046875 C-49.0701416 21.74071045 -49.0387207 20.75095215 -49.00634766 19.73120117 C-48.6875 17.1875 -48.6875 17.1875 -46.6875 14.1875 C-45.01907466 14.51191604 -43.35269519 14.84689189 -41.6875 15.1875 C-40.945 15.31125 -40.2025 15.435 -39.4375 15.5625 C-38.86 15.76875 -38.2825 15.975 -37.6875 16.1875 C-37.1925 17.6725 -37.1925 17.6725 -36.6875 19.1875 C-34.2819739 21.06495453 -34.2819739 21.06495453 -31.375 22.8125 C-30.40949219 23.42351563 -29.44398437 24.03453125 -28.44921875 24.6640625 C-26.10346897 25.95804046 -24.29899043 26.72847318 -21.6875 27.1875 C-15.28753178 19.52064387 -10.02877609 11.14164551 -4.69970703 2.71875 C-3.04285532 0.21229223 -3.04285532 0.21229223 0 0 Z " fill="#B9A89F" transform="translate(88.6875,15.8125)"/>
  <path d="M0 0 C4.15076317 1.38358772 5.48477892 4.28624132 7.75 7.8125 C8.41044312 8.82812012 8.41044312 8.82812012 9.08422852 9.86425781 C10.40069995 11.90257246 11.70174707 13.95004697 13 16 C13.69480469 17.08152344 14.38960937 18.16304687 15.10546875 19.27734375 C22.16802808 30.73706155 24.23644105 41.67700039 23 55 C20.68595158 64.29541484 13.86816274 70.50470222 6.734375 76.421875 C3.56924224 79.30186066 2.66506359 81.89877452 2 86 C1.34 86 0.68 86 0 86 C-0.19980469 84.97519531 -0.39960937 83.95039062 -0.60546875 82.89453125 C-1.93372489 78.25438097 -4.80176964 75.83046728 -8.3125 72.6875 C-14.94529494 66.43729657 -20.37440346 59.55088944 -21.2734375 50.13671875 C-21.75704699 33.71259634 -14.80407343 22.15713817 -6 9 C-5.34644531 8.00613281 -4.69289063 7.01226562 -4.01953125 5.98828125 C-2.69363503 3.98211524 -1.35669216 1.98540316 0 0 Z " fill="#F5F5F6" transform="translate(87,23)"/>
  <path d="M0 0 C5.56295288 -0.30343379 9.53789198 0.34538365 14.74609375 2.265625 C18.14163365 3.37197076 21.45085295 3.67735027 25 4 C25 4.33 25 4.66 25 5 C23.02 5 21.04 5 19 5 C19 5.66 19 6.32 19 7 C17.68 7 16.36 7 15 7 C15 8.65 15 10.3 15 12 C12.525 10.515 12.525 10.515 10 9 C11.23444337 11.92349252 12.49023049 14.83734141 13.75 17.75 C14.09804688 18.575 14.44609375 19.4 14.8046875 20.25 C17.34978184 26.43172216 17.34978184 26.43172216 22 31 C24.86596259 31.44888571 27.3815111 31.69425198 30.25 31.75 C31.36761719 31.79447266 31.36761719 31.79447266 32.5078125 31.83984375 C34.33796672 31.9102343 36.16898769 31.95741832 38 32 C38.495 34.475 38.495 34.475 39 37 C38.12859375 37.03738281 37.2571875 37.07476562 36.359375 37.11328125 C29.26168867 37.50503666 22.8197891 38.41013239 15.9765625 40.30078125 C11.04143542 41.46008275 6.05155557 41.74025689 1 42 C1 42.66 1 43.32 1 44 C5.17406027 45.68088361 9.36121943 47.32599431 13.5625 48.9375 C14.20251953 49.18951172 14.84253906 49.44152344 15.50195312 49.70117188 C26.10741786 53.74676867 35.89785812 55.44885392 47.25 55.1875 C48.38824219 55.17396484 49.52648438 55.16042969 50.69921875 55.14648438 C53.46666987 55.11160054 56.23306105 55.06259317 59 55 C59.33 55.99 59.66 56.98 60 58 C58.27840073 59.72159927 55.99065935 59.36772099 53.6784668 59.59570312 C45.04862019 60.45452906 38.30135292 62.13243139 31 67 C31.99 67.66 32.98 68.32 34 69 C33.505 70.485 33.505 70.485 33 72 C31.54077307 71.88590407 30.08259402 71.75834456 28.625 71.625 C27.81289063 71.55539063 27.00078125 71.48578125 26.1640625 71.4140625 C24 71 24 71 22 69 C22.08984375 67.046875 22.08984375 67.046875 23 65 C25.06640625 63.515625 25.06640625 63.515625 27.5625 62.25 C28.38878906 61.82203125 29.21507812 61.3940625 30.06640625 60.953125 C30.70449219 60.63859375 31.34257813 60.3240625 32 60 C29.05927172 58.99648738 26.12918646 58.03555268 23.1328125 57.2109375 C11.19267091 53.89250854 -2.53078721 48.25925782 -12 40 C-12 39.34 -12 38.68 -12 38 C-11.10075806 37.970271 -11.10075806 37.970271 -10.18334961 37.93994141 C-7.43433529 37.84394997 -4.68600507 37.73457495 -1.9375 37.625 C-0.99455078 37.5940625 -0.05160156 37.563125 0.91992188 37.53125 C6.27566579 37.30731646 10.92098241 36.73292417 16 35 C14.24171744 30.08076004 11.67990193 25.66125444 9.125 21.125 C8.69058594 20.34769531 8.25617187 19.57039063 7.80859375 18.76953125 C5.34008226 14.35002229 5.34008226 14.35002229 2.796875 9.97338867 C0.7038734 6.4391291 -0.50523577 4.16819514 0 0 Z " fill="#B8A79F" transform="translate(13,54)"/>
  <path d="M0 0 C1.95703125 1.5546875 1.95703125 1.5546875 4.45703125 4.3046875 C4.45703125 5.2946875 4.45703125 6.2846875 4.45703125 7.3046875 C3.79703125 7.3046875 3.13703125 7.3046875 2.45703125 7.3046875 C2.45703125 6.3146875 2.45703125 5.3246875 2.45703125 4.3046875 C0.64493402 3.84476434 -1.16767236 3.38684714 -2.98046875 2.9296875 C-3.98980469 2.67445312 -4.99914062 2.41921875 -6.0390625 2.15625 C-7.77349609 1.73472656 -7.77349609 1.73472656 -9.54296875 1.3046875 C-10.1771875 1.13042236 -10.81140625 0.95615723 -11.46484375 0.77661133 C-18.478561 -1.01666865 -25.4592427 -1.10274547 -32.66796875 -1.2578125 C-47.5697951 -1.62297717 -47.5697951 -1.62297717 -53.54296875 -2.6953125 C-53.21296875 -1.7053125 -52.88296875 -0.7153125 -52.54296875 0.3046875 C-44.33603555 3.41622197 -35.19631052 2.66179755 -26.52978516 2.68554688 C-17.86269332 2.72540474 -10.39826685 3.16994638 -2.54296875 7.3046875 C-2.54296875 7.6346875 -2.54296875 7.9646875 -2.54296875 8.3046875 C-16.24174534 12.36358427 -30.24511049 11.12424276 -43.54296875 6.3046875 C-44.23793457 6.05847656 -44.93290039 5.81226562 -45.64892578 5.55859375 C-58.51969747 0.98686835 -58.51969747 0.98686835 -62.54296875 -1.6953125 C-62.54296875 -2.3553125 -62.54296875 -3.0153125 -62.54296875 -3.6953125 C-61.07537109 -3.98535156 -61.07537109 -3.98535156 -59.578125 -4.28125 C-58.25389566 -4.54421753 -56.92967752 -4.80724142 -55.60546875 -5.0703125 C-53.67380859 -5.45316406 -53.67380859 -5.45316406 -51.703125 -5.84375 C-49.57898975 -6.26624812 -47.4717697 -6.71259103 -45.36694336 -7.22338867 C-28.90379156 -11.1972529 -14.16344787 -9.44229858 0 0 Z " fill="#F5F4F4" transform="translate(76.54296875,99.6953125)"/>
  <path d="M0 0 C-7.75964932 8.58929736 -24.04579788 11.50365173 -35.07519531 12.19189453 C-38.19846312 12.2659777 -41.31350697 12.27335696 -44.4375 12.25 C-45.49904297 12.25773437 -46.56058594 12.26546875 -47.65429688 12.2734375 C-48.67458984 12.27085938 -49.69488281 12.26828125 -50.74609375 12.265625 C-51.66060303 12.26336914 -52.5751123 12.26111328 -53.51733398 12.25878906 C-56.11761702 11.98773979 -57.76239459 11.31635382 -60 10 C-54.00366539 6.86555236 -49.90457314 5.88643859 -43.14453125 5.75390625 C-41.78580145 5.7209432 -40.42707764 5.687732 -39.06835938 5.65429688 C-36.94690399 5.60715342 -34.82546845 5.56274174 -32.70385742 5.52319336 C-21.20053074 5.36291446 -21.20053074 5.36291446 -10 3 C-9.34 2.01 -8.68 1.02 -8 0 C-9.20527344 0.15855469 -10.41054687 0.31710938 -11.65234375 0.48046875 C-16.74824654 1.04889237 -21.81414406 1.14612235 -26.9375 1.23950195 C-46.24652729 0.77782394 -46.24652729 0.77782394 -63.28125 8.13671875 C-64.13203125 9.05904297 -64.13203125 9.05904297 -65 10 C-65.66 10 -66.32 10 -67 10 C-65.26141603 3.94129827 -60.97913599 1.8320663 -55.78125 -1.12890625 C-37.47314767 -10.68906094 -18.47869953 -6.84396279 0 0 Z " fill="#F8F8F7" transform="translate(162,97)"/>
  <path d="M0 0 C1.16257324 0.01047363 2.32514648 0.02094727 3.52294922 0.03173828 C5.40820312 0.04140625 5.40820312 0.04140625 7.33154297 0.05126953 C9.30960938 0.07640625 9.30960938 0.07640625 11.32763672 0.10205078 C12.66747393 0.11208096 14.00731823 0.12120674 15.34716797 0.12939453 C18.63250244 0.15303003 21.91748137 0.18597844 25.20263672 0.22705078 C20.70551983 9.75436634 6.63118541 14.59851256 -2.79736328 18.22705078 C-8.05031545 19.90263711 -13.39920038 21.12271597 -18.79736328 22.22705078 C-18.79736328 22.88705078 -18.79736328 23.54705078 -18.79736328 24.22705078 C-15.63382558 26.39633378 -12.38488458 27.89454287 -8.79736328 29.22705078 C-8.98486328 31.10205078 -8.98486328 31.10205078 -9.79736328 33.22705078 C-13.68515941 35.55972846 -16.47802677 35.23154764 -20.79736328 34.22705078 C-21.12736328 33.23705078 -21.45736328 32.24705078 -21.79736328 31.22705078 C-20.80736328 30.89705078 -19.81736328 30.56705078 -18.79736328 30.22705078 C-25.19250293 25.65909389 -30.93888192 24.01628017 -38.67236328 23.10205078 C-39.36072266 23.01568359 -40.04908203 22.92931641 -40.75830078 22.84033203 C-42.43731603 22.63045512 -44.11725376 22.42797991 -45.79736328 22.22705078 C-44.10303236 19.84173575 -42.73375453 18.3945724 -39.78857422 17.86767578 C-37.2463357 17.74898853 -34.71736751 17.72408085 -32.17236328 17.72705078 C-18.92456253 17.42011198 -5.61845745 15.59225534 6.20263672 9.22705078 C7.53503373 8.55851474 8.86812968 7.89136486 10.20263672 7.22705078 C5.24003415 5.31166032 0.33636834 3.61743643 -4.79736328 2.22705078 C-2.79736328 0.22705078 -2.79736328 0.22705078 0 0 Z " fill="#BAA9A0" transform="translate(150.79736328125,90.77294921875)"/>
  <path d="M0 0 C0.66 0.33 1.32 0.66 2 1 C0.81560609 3.88543329 -0.40172303 6.75585947 -1.625 9.625 C-1.95628906 10.43324219 -2.28757813 11.24148437 -2.62890625 12.07421875 C-4.82275171 17.16559595 -7.10317159 22.04329134 -12 25 C-15.0482346 25.39759582 -17.26294339 25.49048762 -20.25 25.25 C-21.75359345 25.18501487 -23.25753815 25.12769366 -24.76171875 25.078125 C-25.84718994 25.04041992 -25.84718994 25.04041992 -26.95458984 25.00195312 C-31.08722301 24.99800695 -35.03453584 25.90876662 -39 27 C-39 26.34 -39 25.68 -39 25 C-34.43046869 21.15406042 -29.28111814 18.07178188 -24 15.3125 C-15.59524797 10.88575471 -7.84173078 5.34009818 0 0 Z " fill="#F8F7F7" transform="translate(153,62)"/>
  <path d="M0 0 C4.28428746 2.28495331 8.0835642 4.79259912 11.9375 7.75 C17.12972855 11.61365001 22.53034626 14.35179283 28.34155273 17.12207031 C33.2504784 19.50496321 37.11473565 22.11473565 41 26 C37.39278606 27.11353126 35.28906396 26.57510361 31.6796875 25.51953125 C28.77649345 24.9566671 25.97705581 24.89806795 23.02612305 24.85839844 C14.30863729 24.67239375 14.30863729 24.67239375 10.87890625 22.91015625 C9.12562832 21.04284398 8.13710344 19.30649058 7 17 C6.70270996 16.41686035 6.40541992 15.8337207 6.09912109 15.23291016 C0 3.18152641 0 3.18152641 0 0 Z " fill="#F2F2F3" transform="translate(22,62)"/>
  <path d="M0 0 C-3.53005139 3.87251906 -6.71889038 6.1275448 -11.5 8.25 C-12.6034375 8.75015625 -13.706875 9.2503125 -14.84375 9.765625 C-20.01307685 11.78729243 -24.52136306 12.15786825 -30.0625 12.1875 C-31.87427734 12.20876953 -31.87427734 12.20876953 -33.72265625 12.23046875 C-36.78742498 12.01494866 -38.43995415 11.61519102 -41 10 C-33.6744781 4.43260336 -27.14489358 2.68844661 -18.125 1.375 C-16.83529297 1.17390625 -16.83529297 1.17390625 -15.51953125 0.96875 C-10.2847183 0.19028009 -5.2913284 -0.1350455 0 0 Z " fill="#F6F5F5" transform="translate(84,111)"/>
  <path d="M0 0 C5.48072928 0.4267781 10.64720455 1.0709121 15.9453125 2.5390625 C18.26651396 3.0597883 20.50210226 3.2197637 22.875 3.375 C28.27689181 3.85090082 33.28641676 5.27563538 38 8 C39.78515625 10.13671875 39.78515625 10.13671875 41 12 C32.39185061 14.63558154 22.05903667 13.95859881 14 10 C9.25328852 7.46868714 4.614501 4.76344939 0 2 C0 1.34 0 0.68 0 0 Z " fill="#F6F5F4" transform="translate(92,110)"/>
  <path d="M0 0 C-4.13463915 4.54030186 -9.71369205 7.39842441 -14.875 10.625 C-16.50888672 11.66527344 -16.50888672 11.66527344 -18.17578125 12.7265625 C-19.22894531 13.3865625 -20.28210938 14.0465625 -21.3671875 14.7265625 C-22.32737793 15.33064941 -23.28756836 15.93473633 -24.27685547 16.55712891 C-26.92065719 17.95795983 -29.05339669 18.59474994 -32 19 C-32.33957287 14.67044593 -32.51504719 11.1281986 -30.6875 7.125 C-26.56115123 3.86230562 -22.07939503 3.07785571 -17 2 C-16.11054688 1.79375 -15.22109375 1.5875 -14.3046875 1.375 C-9.43545095 0.30287452 -4.98162862 -0.21659255 0 0 Z " fill="#F9F8F8" transform="translate(147,62)"/>
  <path d="M0 0 C5.60401465 -0.20893796 10.60030958 0.52909338 16.0625 1.75 C16.83916016 1.90726563 17.61582031 2.06453125 18.41601562 2.2265625 C23.34266769 3.31117684 26.99684342 4.77025079 31 8 C32.9426227 12.06184747 33.2126191 15.53499895 33 20 C27.17310576 18.46313307 22.61825848 15.43390312 17.625 12.1875 C15.99227488 11.13918681 14.35946322 10.09100839 12.7265625 9.04296875 C11.54755371 8.27992432 11.54755371 8.27992432 10.34472656 7.50146484 C7.3950286 5.61260161 4.40849025 3.78680235 1.41162109 1.97387695 C0.94578613 1.65249756 0.47995117 1.33111816 0 1 C0 0.67 0 0.34 0 0 Z " fill="#F1F1F2" transform="translate(29,62)"/>
  <path d="M0 0 C0.66 0.33 1.32 0.66 2 1 C2.05429959 2.74965358 2.09292823 4.49979787 2.125 6.25 C2.14820313 7.22453125 2.17140625 8.1990625 2.1953125 9.203125 C1.98908993 12.15623227 1.79845009 13.65374615 0 16 C-2.6796875 17.1953125 -2.6796875 17.1953125 -5.875 18.125 C-9.43740444 19.18409321 -12.73198757 20.21601254 -16 22 C-14.70866838 18.403169 -13.1948578 15.66953596 -10.8125 12.6875 C-10.19890625 11.91921875 -9.5853125 11.1509375 -8.953125 10.359375 C-6.04092231 6.84143415 -3.04831187 3.40039653 0 0 Z " fill="#F8F8F7" transform="translate(131,43)"/>
  <path d="M0 0 C3.07939199 1.33378608 4.78461312 2.63390539 6.76171875 5.3359375 C7.24060547 5.98820312 7.71949219 6.64046875 8.21289062 7.3125 C8.69951172 7.993125 9.18613281 8.67375 9.6875 9.375 C10.18572266 10.04789063 10.68394531 10.72078125 11.19726562 11.4140625 C13.51742954 14.6125517 15.22046061 17.07259089 16 21 C14.989375 20.525625 13.97875 20.05125 12.9375 19.5625 C9.33753578 17.9966619 5.88679325 17.53348143 2 17 C0 15 0 15 -0.1953125 11.5234375 C-0.18201493 10.14049032 -0.15816232 8.75761346 -0.125 7.375 C-0.11597656 6.66859375 -0.10695312 5.9621875 -0.09765625 5.234375 C-0.07407603 3.48943902 -0.03820461 1.74467705 0 0 Z " fill="#F2F1F3" transform="translate(44,43)"/>
  <path d="M0 0 C-1.75 3.875 -1.75 3.875 -4 5 C-6.40838678 5.08639869 -8.78733881 5.11567764 -11.1953125 5.09765625 C-11.90275604 5.0962413 -12.61019958 5.09482635 -13.33908081 5.09336853 C-15.60109669 5.087766 -17.86301398 5.07521318 -20.125 5.0625 C-21.65755065 5.05748532 -23.19010286 5.05292236 -24.72265625 5.04882812 C-28.48180888 5.03779577 -32.24088772 5.02052952 -36 5 C-36 4.34 -36 3.68 -36 3 C-36.66 2.67 -37.32 2.34 -38 2 C-36.20873565 0.20873565 -33.51825312 0.76362487 -31.09375 0.68359375 C-29.87429687 0.64169922 -28.65484375 0.59980469 -27.3984375 0.55664062 C-26.11195312 0.51732422 -24.82546875 0.47800781 -23.5 0.4375 C-22.24445313 0.39431641 -20.98890625 0.35113281 -19.6953125 0.30664062 C-13.12656652 0.08974807 -6.57218016 -0.05000572 0 0 Z " fill="#BDACA4" transform="translate(154,97)"/>
  <path d="M0 0 C5.82137136 2.18168396 11.24310915 4.95990092 16 9 C17.01017568 13.58464347 16.12261585 15.99061451 14 20 C7.7832509 15.30572006 3.58489152 9.94096019 0 3 C0 2.01 0 1.02 0 0 Z " fill="#F0EFF1" transform="translate(48,38)"/>
  <path d="M0 0 C-1.24631026 5.95375927 -3.38736222 9.15146281 -7.625 13.4375 C-8.3984375 14.24864258 -8.3984375 14.24864258 -9.1875 15.07617188 C-10.44752438 16.39453072 -11.7222836 17.69878046 -13 19 C-15.7558573 14.86621405 -16.10756445 12.94796454 -16 8 C-15.24074219 7.59007812 -14.48148437 7.18015625 -13.69921875 6.7578125 C-12.70535156 6.21898437 -11.71148437 5.68015625 -10.6875 5.125 C-9.20830078 4.32449219 -9.20830078 4.32449219 -7.69921875 3.5078125 C-1.41968912 0 -1.41968912 0 0 0 Z " fill="#F9F8F7" transform="translate(128,39)"/>
  <path d="M0 0 C0.66 0.66 1.32 1.32 2 2 C1.8125 4 1.8125 4 1 6 C-4.29094975 9.52729984 -11.49994464 8.60238341 -17.6328125 7.546875 C-19.43872436 7.09377884 -21.22348948 6.55733664 -23 6 C-23 5.34 -23 4.68 -23 4 C-22.443125 3.96261719 -21.88625 3.92523438 -21.3125 3.88671875 C-17.21216849 3.53348073 -13.63495526 3.00492846 -9.8125 1.4375 C-6.41758643 0.05513998 -3.70568024 -0.44115241 0 0 Z " fill="#BAA8A0" transform="translate(166,110)"/>
  <path d="M0 0 C4.00278242 0.35739129 6.66038419 1.63741733 10.2421875 3.35546875 C13.35211869 4.67369218 16.14822826 5.02724283 19.5 5.3125 C14.09934541 8.91293639 7.908648 9.90589333 1.5 9.3125 C-1.9375 7.8125 -1.9375 7.8125 -4.5 6.3125 C-3.4442623 0.43053279 -3.4442623 0.43053279 0 0 Z " fill="#BAA9A0" transform="translate(15.5,110.6875)"/>
  <path d="M0 0 C-0.99 1.485 -0.99 1.485 -2 3 C0.31 3 2.62 3 5 3 C5 3.33 5 3.66 5 4 C-0.15171623 4.09038099 -4.91913204 3.84681133 -10 3 C-9.67 3.99 -9.34 4.98 -9 6 C-7.12612784 6.80212628 -7.12612784 6.80212628 -4.9375 7.1875 C-4.20402344 7.34605469 -3.47054688 7.50460938 -2.71484375 7.66796875 C-2.14894531 7.77753906 -1.58304688 7.88710937 -1 8 C-4 10 -4 10 -6.3046875 9.64453125 C-15.5347667 6.65667887 -15.5347667 6.65667887 -19 4 C-19 3.34 -19 2.68 -19 2 C-16.58525383 1.46839543 -14.16891893 0.94945234 -11.75 0.4375 C-11.06808594 0.28603516 -10.38617188 0.13457031 -9.68359375 -0.02148438 C-6.18230962 -0.75233495 -3.39701827 -1.32203546 0 0 Z " fill="#E9E6E5" transform="translate(33,94)"/>
  <path d="M0 0 C0 0.66 0 1.32 0 2 C8.25 2 16.5 2 25 2 C25 2.33 25 2.66 25 3 C24.09757568 3.02505615 23.19515137 3.0501123 22.26538086 3.07592773 C18.89011166 3.17154627 15.51498606 3.27074827 12.13989258 3.37231445 C10.6842047 3.41539933 9.22847483 3.45709075 7.77270508 3.49731445 C5.66995639 3.55566411 3.56741394 3.61916516 1.46484375 3.68359375 C0.202771 3.72025146 -1.05930176 3.75690918 -2.35961914 3.79467773 C-5.97472628 3.99857453 -9.42749891 4.43443786 -13 5 C-12.06788763 2.66971908 -11.30996602 1.24108468 -9.3125 -0.3125 C-6.0239998 -1.29016222 -3.32480873 -0.63938629 0 0 Z " fill="#C3B4AC" transform="translate(118,100)"/>
  <path d="M0 0 C0.90105469 0.19464844 1.80210938 0.38929687 2.73046875 0.58984375 C3.76107422 0.82380859 3.76107422 0.82380859 4.8125 1.0625 C2.78297487 3.2471876 0.89188281 4.6930575 -1.75 6.0625 C-5.33923636 7.8131929 -5.33923636 7.8131929 -7.1875 11.0625 C-6.8575 8.7525 -6.5275 6.4425 -6.1875 4.0625 C-8.4975 4.0625 -10.8075 4.0625 -13.1875 4.0625 C-13.1875 3.7325 -13.1875 3.4025 -13.1875 3.0625 C-11.5375 3.0625 -9.8875 3.0625 -8.1875 3.0625 C-8.1875 2.0725 -8.1875 1.0825 -8.1875 0.0625 C-4.80475734 -1.06508089 -3.41971777 -0.75500262 0 0 Z " fill="#F2F0EF" transform="translate(41.1875,111.9375)"/>
  <path d="M0 0 C7.92 0 15.84 0 24 0 C24 0.33 24 0.66 24 1 C26.475 1.495 26.475 1.495 29 2 C29 2.33 29 2.66 29 3 C20.09 3 11.18 3 2 3 C2 2.34 2 1.68 2 1 C1.34 0.67 0.68 0.34 0 0 Z " fill="#B4A198" transform="translate(116,99)"/>
  <path d="M0 0 C4.48525648 0.656379 8.66914029 1.70074209 13 3 C10.75178853 5.51397448 8.65302641 6.80123321 5.5625 8.125 C4.80066406 8.45757812 4.03882813 8.79015625 3.25390625 9.1328125 C-1.08920822 10.80382015 -1.08920822 10.80382015 -3 11 C-4.75 9.5625 -4.75 9.5625 -6 8 C-5.37351563 7.89042969 -4.74703125 7.78085938 -4.1015625 7.66796875 C-2.87566406 7.43013672 -2.87566406 7.43013672 -1.625 7.1875 C-0.81289062 7.03667969 -0.00078125 6.88585937 0.8359375 6.73046875 C3.35820641 6.12455058 3.35820641 6.12455058 5 3 C3.02 3 1.04 3 -1 3 C-0.67 2.01 -0.34 1.02 0 0 Z " fill="#ECE8E6" transform="translate(149,94)"/>
  <path d="M0 0 C0.66 0 1.32 0 2 0 C4.09350689 3.4019487 4.17942163 6.05272412 4 10 C2.34385343 10.38218767 0.67542976 10.71395102 -1 11 C-1.33 10.67 -1.66 10.34 -2 10 C-1.29411765 2.58823529 -1.29411765 2.58823529 0 0 Z " fill="#BDACA4" transform="translate(87,137)"/>
  <path d="M0 0 C3 1 3 1 4 3 C4.039992 4.99960012 4.04346799 7.00047242 4 9 C2.35 9.33 0.7 9.66 -1 10 C-2.15837626 5.94568308 -1.83691257 3.78187881 0 0 Z " fill="#BAA9A1" transform="translate(87,3)"/>
  <path d="M0 0 C0.66 1.32 1.32 2.64 2 4 C-1.28463659 6.18975773 -4.20696275 6.99806563 -8 8 C-8.99 7.01 -9.98 6.02 -11 5 C-10.37351563 4.89042969 -9.74703125 4.78085938 -9.1015625 4.66796875 C-7.87566406 4.43013672 -7.87566406 4.43013672 -6.625 4.1875 C-5.81289062 4.03667969 -5.00078125 3.88585937 -4.1640625 3.73046875 C-1.64179359 3.12455058 -1.64179359 3.12455058 0 0 Z " fill="#F0EEED" transform="translate(154,97)"/>
  <path d="M0 0 C2.64 0 5.28 0 8 0 C7.67 1.32 7.34 2.64 7 4 C2.25 3.125 2.25 3.125 0 2 C0 1.34 0 0.68 0 0 Z " fill="#F3F3F4" transform="translate(14,96)"/>
  <path d="M0 0 C1.65 0 3.3 0 5 0 C4.67 1.65 4.34 3.3 4 5 C2.68 4.67 1.36 4.34 0 4 C0 2.68 0 1.36 0 0 Z " fill="#B8A69D" transform="translate(86,126)"/>
  <path d="M0 0 C1.98 0.495 1.98 0.495 4 1 C3.67 2.32 3.34 3.64 3 5 C1.68 4.67 0.36 4.34 -1 4 C-0.67 2.68 -0.34 1.36 0 0 Z " fill="#C1B2AB" transform="translate(87,118)"/>
  <path d="M0 0 C2.64 0 5.28 0 8 0 C6.35 1.65 4.7 3.3 3 5 C2.34 4.34 1.68 3.68 1 3 C1.33 2.67 1.66 2.34 2 2 C1.34 1.34 0.68 0.68 0 0 Z " fill="#EBE7E5" transform="translate(76,111)"/>
  <path d="M0 0 C4.8 2.46153846 4.8 2.46153846 5.8125 5.1875 C5.874375 5.785625 5.93625 6.38375 6 7 C5.34 7 4.68 7 4 7 C4 6.01 4 5.02 4 4 C2.02 3.34 0.04 2.68 -2 2 C-1.34 1.34 -0.68 0.68 0 0 Z " fill="#EAE6E4" transform="translate(75,100)"/>
  <path d="M0 0 C0 0.66 0 1.32 0 2 C-1.98 2.33 -3.96 2.66 -6 3 C-6 2.01 -6 1.02 -6 0 C-3 -1 -3 -1 0 0 Z " fill="#B5A39A" transform="translate(137,109)"/>
  <path d="M0 0 C2.31 0 4.62 0 7 0 C4.94766315 2.2477975 3.99332739 3.0022242 1 4 C0.67 2.68 0.34 1.36 0 0 Z " fill="#EDEAE8" transform="translate(140,62)"/>
</svg>